<?xml version="1.0" encoding="UTF-8" standalone="no"?>
<!DOCTYPE svg PUBLIC "-//W3C//DTD SVG 1.1//EN"
 "http://www.w3.org/Graphics/SVG/1.1/DTD/svg11.dtd">
<!-- Generated by graphviz version 9.0.0 (0)
 -->
<!-- Pages: 1 -->
<svg width="2465pt" height="332pt"
 viewBox="0.00 0.00 2464.58 332.00" xmlns="http://www.w3.org/2000/svg" xmlns:xlink="http://www.w3.org/1999/xlink">
<g id="graph0" class="graph" transform="scale(1 1) rotate(0) translate(4 328)">
<polygon fill="white" stroke="none" points="-4,4 -4,-328 2460.58,-328 2460.58,4 -4,4"/>
<!-- 0 -->
<g id="node1" class="node">
<title>0</title>
<polygon fill="none" stroke="black" points="1216.72,-324 1112.22,-324 1112.22,-288 1216.72,-288 1216.72,-324"/>
<text text-anchor="middle" x="1164.47" y="-301.32" font-family="Times,serif" font-size="14.00">ebyte&#45;e32&#45;ui</text>
</g>
<!-- 1 -->
<g id="node2" class="node">
<title>1</title>
<ellipse fill="none" stroke="black" cx="359.47" cy="-234" rx="49.63" ry="18"/>
<text text-anchor="middle" x="359.47" y="-229.32" font-family="Times,serif" font-size="14.00">anyhow</text>
</g>
<!-- 0&#45;&gt;1 -->
<g id="edge1" class="edge">
<title>0&#45;&gt;1</title>
<path fill="none" stroke="black" d="M1112.01,-305.03C989.55,-304.29 675.75,-297.68 418.47,-252 414.63,-251.32 410.68,-250.48 406.73,-249.55"/>
<polygon fill="black" stroke="black" points="407.72,-246.19 397.17,-247.1 405.99,-252.98 407.72,-246.19"/>
</g>
<!-- 3 -->
<g id="node4" class="node">
<title>3</title>
<ellipse fill="none" stroke="black" cx="1322.47" cy="-234" rx="60.68" ry="18"/>
<text text-anchor="middle" x="1322.47" y="-229.32" font-family="Times,serif" font-size="14.00">ebyte&#45;e32</text>
</g>
<!-- 0&#45;&gt;3 -->
<g id="edge2" class="edge">
<title>0&#45;&gt;3</title>
<path fill="none" stroke="black" d="M1203.94,-287.52C1226.84,-277.37 1255.73,-264.57 1279.25,-254.15"/>
<polygon fill="black" stroke="black" points="1280.53,-257.41 1288.25,-250.16 1277.69,-251.01 1280.53,-257.41"/>
</g>
<!-- 5 -->
<g id="node6" class="node">
<title>5</title>
<ellipse fill="none" stroke="black" cx="464.47" cy="-234" rx="37" ry="18"/>
<text text-anchor="middle" x="464.47" y="-229.32" font-family="Times,serif" font-size="14.00">klask</text>
</g>
<!-- 0&#45;&gt;5 -->
<g id="edge3" class="edge">
<title>0&#45;&gt;5</title>
<path fill="none" stroke="black" d="M1111.86,-299.74C980.05,-286.56 637.27,-252.28 511.57,-239.71"/>
<polygon fill="black" stroke="black" points="512.25,-236.26 501.95,-238.75 511.55,-243.23 512.25,-236.26"/>
</g>
<!-- 6 -->
<g id="node7" class="node">
<title>6</title>
<ellipse fill="none" stroke="black" cx="1070.47" cy="-234" rx="109.08" ry="18"/>
<text text-anchor="middle" x="1070.47" y="-229.32" font-family="Times,serif" font-size="14.00">linux&#45;embedded&#45;hal</text>
</g>
<!-- 0&#45;&gt;6 -->
<g id="edge4" class="edge">
<title>0&#45;&gt;6</title>
<path fill="none" stroke="black" d="M1141.24,-287.7C1129.42,-278.9 1114.9,-268.08 1102.08,-258.54"/>
<polygon fill="black" stroke="black" points="1104.44,-255.93 1094.33,-252.77 1100.26,-261.55 1104.44,-255.93"/>
</g>
<!-- 8 -->
<g id="node8" class="node">
<title>8</title>
<ellipse fill="none" stroke="black" cx="2069.47" cy="-234" rx="55.94" ry="18"/>
<text text-anchor="middle" x="2069.47" y="-229.32" font-family="Times,serif" font-size="14.00">rustyline</text>
</g>
<!-- 0&#45;&gt;8 -->
<g id="edge5" class="edge">
<title>0&#45;&gt;8</title>
<path fill="none" stroke="black" d="M1217.04,-300.93C1372.94,-288.88 1832.51,-253.33 2003.98,-240.07"/>
<polygon fill="black" stroke="black" points="2004.13,-243.57 2013.83,-239.3 2003.59,-236.59 2004.13,-243.57"/>
</g>
<!-- 11 -->
<g id="node10" class="node">
<title>11</title>
<ellipse fill="none" stroke="darkgreen" cx="2297.47" cy="-234" rx="33.85" ry="18"/>
<text text-anchor="middle" x="2297.47" y="-229.32" font-family="Times,serif" font-size="14.00">toml</text>
</g>
<!-- 0&#45;&gt;11 -->
<g id="edge6" class="edge">
<title>0&#45;&gt;11</title>
<path fill="none" stroke="black" d="M1217.11,-303.04C1362.98,-297.4 1784.77,-279.77 2134.47,-252 2174.81,-248.8 2220.64,-243.9 2253.41,-240.19"/>
<polygon fill="black" stroke="black" points="2253.38,-243.72 2262.92,-239.1 2252.59,-236.76 2253.38,-243.72"/>
</g>
<!-- 2 -->
<g id="node3" class="node">
<title>2</title>
<ellipse fill="none" stroke="black" cx="957.47" cy="-162" rx="31.74" ry="18"/>
<text text-anchor="middle" x="957.47" y="-157.32" font-family="Times,serif" font-size="14.00">clap</text>
</g>
<!-- 17 -->
<g id="node11" class="node">
<title>17</title>
<ellipse fill="none" stroke="black" cx="960.47" cy="-90" rx="56.47" ry="18"/>
<text text-anchor="middle" x="960.47" y="-85.33" font-family="Times,serif" font-size="14.00">once_cell</text>
</g>
<!-- 2&#45;&gt;17 -->
<g id="edge7" class="edge">
<title>2&#45;&gt;17</title>
<path fill="none" stroke="black" stroke-dasharray="1,5" d="M958.21,-143.7C958.53,-136.41 958.9,-127.73 959.25,-119.54"/>
<polygon fill="black" stroke="black" points="962.74,-119.76 959.68,-109.62 955.75,-119.46 962.74,-119.76"/>
</g>
<!-- 19 -->
<g id="node12" class="node">
<title>19</title>
<ellipse fill="none" stroke="black" stroke-dasharray="5,2" cx="1095.47" cy="-90" rx="60.15" ry="18"/>
<text text-anchor="middle" x="1095.47" y="-85.33" font-family="Times,serif" font-size="14.00">termcolor</text>
</g>
<!-- 2&#45;&gt;19 -->
<g id="edge8" class="edge">
<title>2&#45;&gt;19</title>
<path fill="none" stroke="black" stroke-dasharray="1,5" d="M980.57,-149.28C1001.12,-138.86 1031.6,-123.4 1056,-111.02"/>
<polygon fill="black" stroke="black" points="1057.36,-114.26 1064.69,-106.61 1054.19,-108.02 1057.36,-114.26"/>
</g>
<!-- 3&#45;&gt;2 -->
<g id="edge9" class="edge">
<title>3&#45;&gt;2</title>
<path fill="none" stroke="black" stroke-dasharray="1,5" d="M1268.11,-225.66C1189.51,-214.78 1048.08,-194.14 998.47,-180 996.36,-179.4 994.21,-178.72 992.06,-177.99"/>
<polygon fill="black" stroke="black" points="993.43,-174.77 982.84,-174.54 990.98,-181.32 993.43,-174.77"/>
</g>
<!-- 4 -->
<g id="node5" class="node">
<title>4</title>
<ellipse fill="none" stroke="black" cx="1233.47" cy="-162" rx="81.72" ry="18"/>
<text text-anchor="middle" x="1233.47" y="-157.32" font-family="Times,serif" font-size="14.00">embedded&#45;hal</text>
</g>
<!-- 3&#45;&gt;4 -->
<g id="edge10" class="edge">
<title>3&#45;&gt;4</title>
<path fill="none" stroke="black" d="M1301.83,-216.76C1290.43,-207.79 1276.05,-196.49 1263.43,-186.56"/>
<polygon fill="black" stroke="black" points="1265.83,-184 1255.81,-180.57 1261.51,-189.5 1265.83,-184"/>
</g>
<!-- 21 -->
<g id="node13" class="node">
<title>21</title>
<ellipse fill="none" stroke="#00cd00" cx="1386.47" cy="-162" rx="52.79" ry="18"/>
<text text-anchor="middle" x="1386.47" y="-157.32" font-family="Times,serif" font-size="14.00">mutants</text>
</g>
<!-- 3&#45;&gt;21 -->
<g id="edge11" class="edge">
<title>3&#45;&gt;21</title>
<path fill="none" stroke="#00cd00" d="M1337.64,-216.41C1345.45,-207.87 1355.13,-197.28 1363.81,-187.79"/>
<polygon fill="#00cd00" stroke="#00cd00" points="1366.23,-190.33 1370.39,-180.59 1361.06,-185.61 1366.23,-190.33"/>
</g>
<!-- 22 -->
<g id="node14" class="node">
<title>22</title>
<ellipse fill="none" stroke="black" cx="1495.47" cy="-162" rx="38.58" ry="18"/>
<text text-anchor="middle" x="1495.47" y="-157.32" font-family="Times,serif" font-size="14.00">snafu</text>
</g>
<!-- 3&#45;&gt;22 -->
<g id="edge12" class="edge">
<title>3&#45;&gt;22</title>
<path fill="none" stroke="black" d="M1357.48,-218.83C1386.24,-207.2 1426.93,-190.74 1456.67,-178.7"/>
<polygon fill="black" stroke="black" points="1457.73,-182.05 1465.69,-175.05 1455.1,-175.56 1457.73,-182.05"/>
</g>
<!-- 23 -->
<g id="node15" class="node">
<title>23</title>
<ellipse fill="none" stroke="#00cd00" cx="1630.47" cy="-162" rx="78.57" ry="18"/>
<text text-anchor="middle" x="1630.47" y="-157.32" font-family="Times,serif" font-size="14.00">typed&#45;builder</text>
</g>
<!-- 3&#45;&gt;23 -->
<g id="edge13" class="edge">
<title>3&#45;&gt;23</title>
<path fill="none" stroke="#00cd00" d="M1369.59,-222.29C1421.83,-210.42 1506.46,-191.19 1565.1,-177.86"/>
<polygon fill="#00cd00" stroke="#00cd00" points="1565.64,-181.32 1574.62,-175.69 1564.09,-174.5 1565.64,-181.32"/>
</g>
<!-- 5&#45;&gt;2 -->
<g id="edge16" class="edge">
<title>5&#45;&gt;2</title>
<path fill="none" stroke="black" d="M501.73,-232.1C579.86,-229.45 766.04,-219.2 916.47,-180 918.6,-179.45 920.76,-178.81 922.92,-178.1"/>
<polygon fill="black" stroke="black" points="923.96,-181.45 932.15,-174.72 921.56,-174.87 923.96,-181.45"/>
</g>
<!-- 26 -->
<g id="node16" class="node">
<title>26</title>
<ellipse fill="none" stroke="black" cx="572.47" cy="-162" rx="53.31" ry="18"/>
<text text-anchor="middle" x="572.47" y="-157.32" font-family="Times,serif" font-size="14.00">Inflector</text>
</g>
<!-- 5&#45;&gt;26 -->
<g id="edge14" class="edge">
<title>5&#45;&gt;26</title>
<path fill="none" stroke="black" d="M486.07,-219C501.34,-209.11 522.09,-195.65 539.44,-184.41"/>
<polygon fill="black" stroke="black" points="540.9,-187.63 547.39,-179.26 537.1,-181.76 540.9,-187.63"/>
</g>
<!-- 27 -->
<g id="node17" class="node">
<title>27</title>
<ellipse fill="none" stroke="black" cx="464.47" cy="-162" rx="37" ry="18"/>
<text text-anchor="middle" x="464.47" y="-157.32" font-family="Times,serif" font-size="14.00">cansi</text>
</g>
<!-- 5&#45;&gt;27 -->
<g id="edge15" class="edge">
<title>5&#45;&gt;27</title>
<path fill="none" stroke="black" d="M464.47,-215.7C464.47,-208.41 464.47,-199.73 464.47,-191.54"/>
<polygon fill="black" stroke="black" points="467.97,-191.62 464.47,-181.62 460.97,-191.62 467.97,-191.62"/>
</g>
<!-- 28 -->
<g id="node18" class="node">
<title>28</title>
<ellipse fill="none" stroke="black" cx="46.47" cy="-162" rx="46.47" ry="18"/>
<text text-anchor="middle" x="46.47" y="-157.32" font-family="Times,serif" font-size="14.00">eframe</text>
</g>
<!-- 5&#45;&gt;28 -->
<g id="edge17" class="edge">
<title>5&#45;&gt;28</title>
<path fill="none" stroke="black" d="M437.08,-221.65C431.03,-219.5 424.6,-217.46 418.47,-216 280.96,-183.26 240.89,-208.65 102.47,-180 98.94,-179.27 95.31,-178.41 91.68,-177.48"/>
<polygon fill="black" stroke="black" points="92.9,-174.19 82.33,-174.91 91.05,-180.94 92.9,-174.19"/>
</g>
<!-- 29 -->
<g id="node19" class="node">
<title>29</title>
<ellipse fill="none" stroke="black" cx="153.47" cy="-162" rx="42.26" ry="18"/>
<text text-anchor="middle" x="153.47" y="-157.32" font-family="Times,serif" font-size="14.00">linkify</text>
</g>
<!-- 5&#45;&gt;29 -->
<g id="edge18" class="edge">
<title>5&#45;&gt;29</title>
<path fill="none" stroke="black" d="M436.52,-221.72C430.63,-219.61 424.4,-217.58 418.47,-216 325.28,-191.17 298.06,-203.32 204.47,-180 201.7,-179.31 198.86,-178.54 196.01,-177.72"/>
<polygon fill="black" stroke="black" points="197.11,-174.4 186.53,-174.82 195.07,-181.09 197.11,-174.4"/>
</g>
<!-- 31 -->
<g id="node20" class="node">
<title>31</title>
<ellipse fill="none" stroke="darkgreen" cx="269.47" cy="-162" rx="55.94" ry="18"/>
<text text-anchor="middle" x="269.47" y="-157.32" font-family="Times,serif" font-size="14.00">thiserror</text>
</g>
<!-- 5&#45;&gt;31 -->
<g id="edge19" class="edge">
<title>5&#45;&gt;31</title>
<path fill="none" stroke="black" d="M435.78,-222.34C430.05,-220.22 424.08,-218.03 418.47,-216 384.6,-203.72 346.3,-190.1 317.01,-179.74"/>
<polygon fill="black" stroke="black" points="318.28,-176.48 307.68,-176.45 315.95,-183.08 318.28,-176.48"/>
</g>
<!-- 32 -->
<g id="node21" class="node">
<title>32</title>
<ellipse fill="none" stroke="black" cx="376.47" cy="-162" rx="33.32" ry="18"/>
<text text-anchor="middle" x="376.47" y="-157.32" font-family="Times,serif" font-size="14.00">uuid</text>
</g>
<!-- 5&#45;&gt;32 -->
<g id="edge20" class="edge">
<title>5&#45;&gt;32</title>
<path fill="none" stroke="black" d="M445.81,-218.15C433.51,-208.37 417.21,-195.4 403.5,-184.5"/>
<polygon fill="black" stroke="black" points="405.7,-181.77 395.69,-178.29 401.34,-187.25 405.7,-181.77"/>
</g>
<!-- 6&#45;&gt;4 -->
<g id="edge21" class="edge">
<title>6&#45;&gt;4</title>
<path fill="none" stroke="black" d="M1108.28,-216.76C1131.73,-206.69 1162.04,-193.68 1186.96,-182.98"/>
<polygon fill="black" stroke="black" points="1188.07,-186.31 1195.88,-179.14 1185.31,-179.87 1188.07,-186.31"/>
</g>
<!-- 34 -->
<g id="node22" class="node">
<title>34</title>
<ellipse fill="none" stroke="black" stroke-dasharray="5,2" cx="702.47" cy="-162" rx="59.1" ry="18"/>
<text text-anchor="middle" x="702.47" y="-157.32" font-family="Times,serif" font-size="14.00">gpio&#45;cdev</text>
</g>
<!-- 6&#45;&gt;34 -->
<g id="edge22" class="edge">
<title>6&#45;&gt;34</title>
<path fill="none" stroke="black" stroke-dasharray="1,5" d="M993.42,-220.91C932.66,-211.02 845.87,-196.06 770.47,-180 766.18,-179.08 761.74,-178.09 757.29,-177.06"/>
<polygon fill="black" stroke="black" points="758.27,-173.69 747.74,-174.78 756.65,-180.5 758.27,-173.69"/>
</g>
<!-- 37 -->
<g id="node24" class="node">
<title>37</title>
<ellipse fill="none" stroke="black" cx="843.47" cy="-162" rx="63.83" ry="18"/>
<text text-anchor="middle" x="843.47" y="-157.32" font-family="Times,serif" font-size="14.00">serial&#45;unix</text>
</g>
<!-- 6&#45;&gt;37 -->
<g id="edge23" class="edge">
<title>6&#45;&gt;37</title>
<path fill="none" stroke="black" d="M1020.38,-217.55C983.54,-206.19 933.58,-190.79 896.15,-179.24"/>
<polygon fill="black" stroke="black" points="897.49,-175.99 886.9,-176.39 895.42,-182.68 897.49,-175.99"/>
</g>
<!-- 39 -->
<g id="node25" class="node">
<title>39</title>
<ellipse fill="none" stroke="black" stroke-dasharray="5,2" cx="1070.47" cy="-162" rx="62.78" ry="18"/>
<text text-anchor="middle" x="1070.47" y="-157.32" font-family="Times,serif" font-size="14.00">sysfs_gpio</text>
</g>
<!-- 6&#45;&gt;39 -->
<g id="edge24" class="edge">
<title>6&#45;&gt;39</title>
<path fill="none" stroke="black" stroke-dasharray="1,5" d="M1070.47,-215.7C1070.47,-208.41 1070.47,-199.73 1070.47,-191.54"/>
<polygon fill="black" stroke="black" points="1073.97,-191.62 1070.47,-181.62 1066.97,-191.62 1073.97,-191.62"/>
</g>
<!-- 45 -->
<g id="node27" class="node">
<title>45</title>
<ellipse fill="none" stroke="darkgreen" cx="2333.47" cy="-162" rx="27" ry="18"/>
<text text-anchor="middle" x="2333.47" y="-157.32" font-family="Times,serif" font-size="14.00">log</text>
</g>
<!-- 8&#45;&gt;45 -->
<g id="edge25" class="edge">
<title>8&#45;&gt;45</title>
<path fill="none" stroke="black" d="M2118.36,-224.76C2165.11,-216.15 2237.21,-200.96 2297.47,-180 2299.02,-179.46 2300.6,-178.88 2302.17,-178.26"/>
<polygon fill="black" stroke="black" points="2303.27,-181.6 2311.08,-174.43 2300.51,-175.16 2303.27,-181.6"/>
</g>
<!-- 50 -->
<g id="node28" class="node">
<title>50</title>
<ellipse fill="none" stroke="black" cx="1848.47" cy="-162" rx="121.71" ry="18"/>
<text text-anchor="middle" x="1848.47" y="-157.32" font-family="Times,serif" font-size="14.00">unicode&#45;segmentation</text>
</g>
<!-- 8&#45;&gt;50 -->
<g id="edge26" class="edge">
<title>8&#45;&gt;50</title>
<path fill="none" stroke="black" d="M2030.47,-220.65C1996.83,-209.99 1947.7,-194.43 1908.96,-182.16"/>
<polygon fill="black" stroke="black" points="1910.36,-178.93 1899.77,-179.25 1908.25,-185.6 1910.36,-178.93"/>
</g>
<!-- 51 -->
<g id="node29" class="node">
<title>51</title>
<ellipse fill="none" stroke="black" cx="2069.47" cy="-162" rx="81.72" ry="18"/>
<text text-anchor="middle" x="2069.47" y="-157.32" font-family="Times,serif" font-size="14.00">unicode&#45;width</text>
</g>
<!-- 8&#45;&gt;51 -->
<g id="edge27" class="edge">
<title>8&#45;&gt;51</title>
<path fill="none" stroke="black" d="M2069.47,-215.7C2069.47,-208.41 2069.47,-199.73 2069.47,-191.54"/>
<polygon fill="black" stroke="black" points="2072.97,-191.62 2069.47,-181.62 2065.97,-191.62 2072.97,-191.62"/>
</g>
<!-- 52 -->
<g id="node30" class="node">
<title>52</title>
<ellipse fill="lightgrey" stroke="black" cx="2228.47" cy="-162" rx="59.63" ry="18"/>
<text text-anchor="middle" x="2228.47" y="-157.32" font-family="Times,serif" font-size="14.00">utf8parse</text>
</g>
<!-- 8&#45;&gt;52 -->
<g id="edge28" class="edge">
<title>8&#45;&gt;52</title>
<path fill="none" stroke="black" d="M2101.65,-218.83C2125.73,-208.23 2158.93,-193.62 2185.32,-182"/>
<polygon fill="lightgrey" stroke="black" points="2186.67,-185.23 2194.41,-177.99 2183.85,-178.82 2186.67,-185.23"/>
</g>
<!-- 9 -->
<g id="node9" class="node">
<title>9</title>
<ellipse fill="none" stroke="darkgreen" cx="2417.47" cy="-162" rx="39.11" ry="18"/>
<text text-anchor="middle" x="2417.47" y="-157.32" font-family="Times,serif" font-size="14.00">serde</text>
</g>
<!-- 11&#45;&gt;9 -->
<g id="edge29" class="edge">
<title>11&#45;&gt;9</title>
<path fill="none" stroke="darkgreen" d="M2319.76,-220C2337.85,-209.44 2363.64,-194.4 2384.17,-182.42"/>
<polygon fill="darkgreen" stroke="darkgreen" points="2385.89,-185.47 2392.77,-177.41 2382.36,-179.43 2385.89,-185.47"/>
</g>
<!-- 70 -->
<g id="node32" class="node">
<title>70</title>
<ellipse fill="none" stroke="black" cx="46.47" cy="-90" rx="27" ry="18"/>
<text text-anchor="middle" x="46.47" y="-85.33" font-family="Times,serif" font-size="14.00">epi</text>
</g>
<!-- 28&#45;&gt;70 -->
<g id="edge30" class="edge">
<title>28&#45;&gt;70</title>
<path fill="none" stroke="black" d="M46.47,-143.7C46.47,-136.41 46.47,-127.73 46.47,-119.54"/>
<polygon fill="black" stroke="black" points="49.97,-119.62 46.47,-109.62 42.97,-119.62 49.97,-119.62"/>
</g>
<!-- 36 -->
<g id="node23" class="node">
<title>36</title>
<ellipse fill="none" stroke="black" cx="712.47" cy="-90" rx="63.83" ry="18"/>
<text text-anchor="middle" x="712.47" y="-85.33" font-family="Times,serif" font-size="14.00">serial&#45;core</text>
</g>
<!-- 37&#45;&gt;36 -->
<g id="edge32" class="edge">
<title>37&#45;&gt;36</title>
<path fill="none" stroke="black" d="M814.72,-145.64C796.04,-135.65 771.46,-122.52 751.08,-111.63"/>
<polygon fill="black" stroke="black" points="752.96,-108.67 742.49,-107.04 749.66,-114.84 752.96,-108.67"/>
</g>
<!-- 82 -->
<g id="node33" class="node">
<title>82</title>
<ellipse fill="none" stroke="black" cx="840.47" cy="-90" rx="45.95" ry="18"/>
<text text-anchor="middle" x="840.47" y="-85.33" font-family="Times,serif" font-size="14.00">ioctl&#45;rs</text>
</g>
<!-- 37&#45;&gt;82 -->
<g id="edge31" class="edge">
<title>37&#45;&gt;82</title>
<path fill="none" stroke="black" d="M842.73,-143.7C842.42,-136.41 842.05,-127.73 841.7,-119.54"/>
<polygon fill="black" stroke="black" points="845.2,-119.46 841.27,-109.62 838.2,-119.76 845.2,-119.46"/>
</g>
<!-- 40 -->
<g id="node26" class="node">
<title>40</title>
<ellipse fill="none" stroke="darkgreen" cx="2333.47" cy="-90" rx="36.48" ry="18"/>
<text text-anchor="middle" x="2333.47" y="-85.33" font-family="Times,serif" font-size="14.00">cfg&#45;if</text>
</g>
<!-- 45&#45;&gt;40 -->
<g id="edge33" class="edge">
<title>45&#45;&gt;40</title>
<path fill="none" stroke="darkgreen" d="M2333.47,-143.7C2333.47,-136.41 2333.47,-127.73 2333.47,-119.54"/>
<polygon fill="darkgreen" stroke="darkgreen" points="2336.97,-119.62 2333.47,-109.62 2329.97,-119.62 2336.97,-119.62"/>
</g>
<!-- 66 -->
<g id="node31" class="node">
<title>66</title>
<ellipse fill="none" stroke="black" cx="46.47" cy="-18" rx="32.79" ry="18"/>
<text text-anchor="middle" x="46.47" y="-13.32" font-family="Times,serif" font-size="14.00">egui</text>
</g>
<!-- 70&#45;&gt;66 -->
<g id="edge34" class="edge">
<title>70&#45;&gt;66</title>
<path fill="none" stroke="black" d="M46.47,-71.7C46.47,-64.41 46.47,-55.73 46.47,-47.54"/>
<polygon fill="black" stroke="black" points="49.97,-47.62 46.47,-37.62 42.97,-47.62 49.97,-47.62"/>
</g>
</g>
</svg>
